<svg width="439" height="321" viewBox="0 0 439 321" fill="none" xmlns="http://www.w3.org/2000/svg">
<path fill-rule="evenodd" clip-rule="evenodd" d="M28.9994 -228.518L44.2028 -236.944L150.289 -173.498L167.059 -163.381L174.43 -158.923L183.394 -153.49C192.678 -147.842 202.5 -141.758 212.075 -135.232C213.421 -134.315 214.763 -133.388 216.101 -132.451C221.573 -128.582 226.831 -124.492 231.84 -120.208C236.843 -115.929 241.602 -111.454 246.08 -106.812C254.966 -97.5706 263.551 -87.0285 272.324 -74.5819C277.704 -66.9497 283.047 -59.0037 288.271 -51.1646L292.164 -45.312C293.645 -43.084 295.126 -40.8551 296.61 -38.63L298.039 -36.4991C306.58 -23.8373 314.545 -13.3897 322.344 -4.61567C331.541 5.73321 341.537 14.2489 352.074 20.7159L353.183 21.3883C364.13 27.9339 376.773 32.9372 390.762 36.2587C403.022 39.1711 416.485 41.2707 433.13 42.8654L447.667 44.2466C457.298 45.1686 467.084 46.1504 476.607 47.3314C491.827 49.2179 505.281 51.8655 517.736 55.4223C530.229 59.0063 542.71 63.9311 554.829 70.0554C565.451 75.4646 575.843 81.3817 585.618 87.1009L589.315 89.2707C599.548 95.3039 609.755 101.355 619.947 107.4L726.51 171.115L726.205 188.455L615.318 122.136C610.458 119.251 605.592 116.366 600.722 113.482L589.27 106.707L581.532 102.137L578.947 100.62C567.429 93.8816 557.398 88.2656 546.824 83.1398C534.532 77.2191 521.672 72.6642 508.604 69.6012C495.976 66.6427 482.077 64.5595 466.109 63.2332C458.874 62.6316 451.493 62.1185 444.214 61.6358L430.416 60.7294L421.753 60.1451C419.71 60.0023 417.706 59.8468 415.737 59.6811C401.94 58.5155 389.935 56.7761 379.189 54.3911C365.658 51.3885 353.444 46.7338 342.87 40.5503L341.831 39.9343C331.142 33.5118 321.05 24.8394 311.833 14.1563C303.643 4.66343 295.44 -6.6507 286.751 -20.4332C284.838 -23.4664 282.933 -26.5113 281.032 -29.5593L274.508 -40.0254C270.807 -45.9507 267.038 -51.9471 263.266 -57.7804C254.638 -71.1254 246.338 -82.3178 237.893 -91.9977C229.133 -102.038 219.196 -111.182 208.359 -119.176C197.636 -127.029 186.323 -134.099 175.695 -140.57C167.582 -145.501 159.471 -150.401 151.374 -155.286L142.533 -160.618L28.9994 -228.518ZM61.4223 -246.497L159.022 -188.126C167.286 -183.146 175.568 -178.156 183.857 -173.142L192.148 -168.119C202.081 -162.088 213.755 -154.901 225.015 -147.323C236.177 -139.77 246.525 -131.556 255.772 -122.908C265.168 -114.089 274.428 -103.959 283.297 -92.7994C290.702 -83.4825 297.996 -73.6149 305.099 -63.9099L308.78 -58.8718C318.505 -45.5598 326.944 -35.1927 335.338 -26.2456C344.701 -16.2649 354.76 -7.95087 365.258 -1.51287L366.463 -0.782902C377.404 5.75468 389.934 10.9304 403.704 14.5996C415.567 17.7597 428.759 20.2999 445.222 22.5959L451.202 23.4315C463.211 25.1165 475.478 26.9015 487.461 29.0939C501.593 31.681 515.003 35.1208 527.313 39.3173C539.567 43.5166 551.471 48.7057 563.703 55.1837C575.739 61.5793 587.302 68.2984 598.006 74.6055L607.031 79.9417C611.84 82.7858 616.647 85.6311 621.446 88.4784L630.652 93.9408L665.084 114.529L726.836 151.461L726.532 168.799L635.414 114.303L634.409 113.704C630.977 111.651 627.553 109.603 624.117 107.546C616.619 103.098 609.119 98.6477 601.607 94.2048L590.262 87.5078L586.617 85.3686C576.818 79.6353 566.397 73.7011 555.726 68.2671C543.497 62.0871 530.899 57.1179 518.279 53.4949C505.725 49.9096 492.172 47.2423 476.846 45.3427C466.111 44.0111 455.055 42.9337 444.263 41.9095L433.314 40.8715C416.764 39.2851 403.389 37.2003 391.217 34.3087C377.812 31.1207 365.668 26.3776 355.106 20.2012L354.016 19.555C343.315 13.1252 333.163 4.54782 323.846 -5.9399C315.657 -15.1559 307.295 -26.2105 298.281 -39.7353L296.057 -43.0743L293.836 -46.4154C287.381 -56.1263 280.706 -66.1682 273.966 -75.7302C265.133 -88.2568 256.485 -98.8756 247.527 -108.196C243.253 -112.626 238.716 -116.9 233.961 -121.009C228.651 -125.599 223.071 -129.975 217.246 -134.091C215.886 -135.044 214.521 -135.988 213.15 -136.921C203.5 -143.497 193.694 -149.568 184.44 -155.195L183.105 -156.003C178.096 -159.044 173.086 -162.077 168.081 -165.1L151.269 -175.244L46.2184 -238.069L61.4223 -246.497ZM78.6544 -256.049L167.766 -202.756C176.035 -197.777 184.32 -192.789 192.613 -187.778L203.966 -180.904C212.632 -175.636 223.327 -169.054 233.926 -162.183C240.346 -157.993 246.349 -153.792 252.046 -149.514L254.317 -147.801L254.868 -147.372C258.487 -144.585 261.99 -141.762 265.388 -138.879C275.158 -130.58 284.869 -121.186 294.248 -110.958C296.437 -108.567 298.603 -106.154 300.773 -103.694L302.401 -101.839C307.293 -96.2451 312.246 -90.3757 317.599 -83.9314L321.988 -78.6312L322.74 -77.7261C332.512 -65.9701 340.864 -56.7423 348.9 -48.8143C350.463 -47.2702 352.045 -45.7775 353.637 -44.3169L354.834 -43.2271C355.385 -42.729 355.931 -42.2174 356.485 -41.7282L357.397 -40.9461C364.43 -34.8181 371.694 -29.4357 379.105 -24.8939L380.428 -24.0932C391.349 -17.5661 403.72 -12.1534 417.2 -8.00382C419.321 -7.34992 421.497 -6.70972 423.739 -6.07702L425.521 -5.57914C434.503 -3.09911 444.533 -0.755394 456.374 1.63882L457.564 1.87841C470.674 4.50738 484.682 7.41988 498.276 10.8946C499.967 11.3299 501.65 11.7762 503.323 12.2321C515.034 15.4294 526.282 19.1524 536.826 23.3227C548.549 27.9854 560.242 33.5456 572.572 40.3197C579.014 43.8818 585.476 47.5574 591.844 51.2104L600.702 56.304L606.832 59.8332L727.195 131.82L726.893 149.156L632.894 92.9364L622.469 86.76C617.667 83.9106 612.857 81.0637 608.043 78.2166C605.036 76.4376 602.041 74.6547 599.028 72.878L595.422 70.7574C585.725 65.0672 575.379 59.1146 564.647 53.4112C552.322 46.8851 540.324 41.6533 527.967 37.4213C515.562 33.1915 502.058 29.7273 487.828 27.1223C474.808 24.7396 461.473 22.8403 448.494 21.0276L445.506 20.6106C429.123 18.3267 416.007 15.7996 404.226 12.6606C390.636 9.04125 378.279 3.93771 367.498 -2.50495L367.244 -2.6574C356.561 -9.07632 346.321 -17.4727 336.803 -27.618C328.874 -36.0711 320.896 -45.8096 311.81 -58.1388L310.334 -60.1504L306.783 -65.0088C299.649 -74.7595 292.321 -84.6744 284.871 -94.0486C275.933 -105.292 266.605 -115.493 257.146 -124.372C247.821 -133.093 237.39 -141.374 226.142 -148.986C214.952 -156.52 203.693 -163.458 193.192 -169.834C185.092 -174.75 176.995 -179.637 168.911 -184.511L160.023 -189.868L63.4519 -247.622L78.6544 -256.049ZM80.6777 -257.17L95.8816 -265.597L209.719 -197.512L214.495 -194.559L225.108 -188.009C230.976 -184.384 236.932 -180.69 242.798 -176.996C254.815 -169.373 265.309 -162.067 274.881 -154.661C284.9 -146.906 295.022 -138.183 304.966 -128.737L306.646 -127.131C315.864 -118.284 324.652 -109.25 331.671 -101.924L336.075 -97.3249C343.484 -89.6218 352.766 -80.2229 362.519 -71.4557C364.417 -69.7484 366.333 -68.1034 368.258 -66.4873C376.366 -59.6638 384.664 -53.6336 393.019 -48.526L394.523 -47.6127C405.379 -41.1203 417.563 -35.4255 430.738 -30.6861C443.153 -26.2183 455.875 -22.4703 466.204 -19.5752L472.886 -17.7166C487.306 -13.6931 498.505 -10.3261 508.859 -6.90723C521.917 -2.58594 534.491 2.26889 546.23 7.52227C557.359 12.5323 568.87 18.4153 581.423 25.5077C587.341 28.8736 593.31 32.3175 599.179 35.7165L612.061 43.1809C613.235 43.8602 614.408 44.5386 615.579 45.2154L727.533 112.172L727.231 129.507L607.851 58.1072L601.442 54.4223L595.326 50.9007C588.147 46.7733 580.831 42.5986 573.537 38.5684C561.111 31.7408 549.344 26.1461 537.563 21.4622C536.047 20.8629 534.517 20.2723 532.973 19.6923C522.164 15.6253 510.683 12.0207 498.773 8.9577C489.679 6.63311 480.414 4.56482 471.352 2.66162C468.33 2.02688 465.33 1.4093 462.368 0.80798L456.718 -0.333073L454.31 -0.825382C442.795 -3.20142 433.034 -5.53104 424.295 -7.99762C422.066 -8.62671 419.902 -9.26554 417.789 -9.91703C404.449 -14.0251 392.224 -19.3723 381.454 -25.8096L381.194 -25.9657C370.521 -32.379 360.129 -40.5436 350.304 -50.2372L349.132 -51.4016C341.299 -59.2287 333.099 -68.3602 323.495 -79.9469L320.878 -83.1105C311.809 -94.0608 303.945 -103.333 295.722 -112.31C286.29 -122.596 276.52 -132.048 266.682 -140.403C265.003 -141.828 263.297 -143.237 261.566 -144.635L259.334 -146.426C257.671 -147.744 255.97 -149.051 254.253 -150.352C248.222 -154.92 241.856 -159.396 235.016 -163.86L233.128 -165.081C221.8 -172.381 210.579 -179.238 201.944 -184.47C190.881 -191.174 179.824 -197.83 168.766 -204.488L80.6777 -257.17ZM113.109 -275.143L218.465 -212.131L225.397 -207.873L232.34 -203.619C238.773 -199.68 245.211 -195.736 251.639 -191.76L253.863 -190.373C265.598 -183.034 275.298 -176.598 284.234 -170.224C294.6 -162.824 305.075 -154.676 315.369 -146.006L317.121 -144.526C327.026 -136.126 336.546 -127.584 344.058 -120.767L347.942 -117.243C355.695 -110.226 365.424 -101.595 375.648 -93.2869C385.982 -84.8915 396.063 -77.724 406.41 -71.4221L407.928 -70.5052L408.151 -70.3714C419.107 -63.8201 430.761 -57.9946 443.777 -52.5619L445.904 -51.6797C457.607 -46.8583 469.381 -42.5485 478.897 -39.1584L485.726 -36.7288C495.508 -33.2336 507.414 -28.8842 519.141 -24.2113C531.757 -19.1815 543.988 -13.7419 555.491 -8.04205L557.358 -7.11115C567.342 -2.10355 577.85 3.60379 590.236 10.7429C594.628 13.2848 599.011 15.8367 603.39 18.3918L609.957 22.2259C614.747 25.0237 619.534 27.8207 624.315 30.599L727.88 92.5389L727.578 109.868L616.597 43.4925L611.454 40.5166L597.425 32.3866C592.446 29.5068 587.413 26.6094 582.413 23.7646C569.806 16.6421 558.24 10.7324 547.055 5.69598C535.254 0.414948 522.616 -4.46497 509.493 -8.80756L507.319 -9.52026C495.001 -13.5305 482.728 -17.0526 472.843 -19.8079L466.645 -21.5333C456.34 -24.4249 443.686 -28.1568 431.42 -32.5687C418.821 -37.1019 407.138 -42.5155 396.671 -48.6689L395.189 -49.5496C384.575 -55.9268 374.037 -63.7963 363.862 -72.9435C354.111 -81.7162 344.874 -91.0683 337.511 -98.7253L331.909 -104.572C324.661 -112.12 315.698 -121.29 306.35 -130.188C296.353 -139.684 286.178 -148.451 276.111 -156.245C266.52 -163.668 255.976 -171.01 243.872 -178.689C237.025 -183.001 230.061 -187.308 223.257 -191.507L220.352 -193.299C217.158 -195.27 213.965 -197.24 210.765 -199.221L97.9096 -266.72L113.109 -275.143ZM130.332 -284.692L260.603 -206.782C263.29 -205.038 265.985 -203.304 268.684 -201.573L272.733 -198.977C279.542 -194.617 286.583 -190.107 293.438 -185.542C303.309 -178.966 313.391 -171.812 323.435 -164.253L325.443 -162.736C335.008 -155.484 344.44 -147.995 352.25 -141.718L360.09 -135.401C368.077 -128.981 377.892 -121.211 387.949 -113.737C399.157 -105.399 409.955 -98.1385 420.879 -91.6156C431.832 -85.0645 443.322 -78.9903 456.001 -73.0464L458.07 -72.0804C468.419 -67.2705 478.797 -62.7731 487.528 -59.0653L497.476 -54.8604C509.932 -49.5794 519.846 -45.2302 529.122 -40.9834C541.466 -35.3094 553.414 -29.3867 564.634 -23.3778C570.083 -20.458 575.557 -17.4315 580.935 -14.4352L592.747 -7.84559C594.902 -6.64686 597.054 -5.45381 599.203 -4.27143L728.212 72.887L727.909 90.2172L625.342 28.8731L618.29 24.7664L611.241 20.6515C606.803 18.0597 602.364 15.4667 597.919 12.8811L591.242 9.00832L588.933 7.68157C576.731 0.693655 566.335 -4.89958 556.387 -9.83503C544.878 -15.5402 532.598 -21.0019 519.887 -26.0706L517.784 -26.9046C506.569 -31.3299 495.453 -35.3845 486.267 -38.6644L476.938 -41.9861C467.361 -45.4214 455.863 -49.6852 444.553 -54.4081C432.339 -59.5061 420.882 -65.1927 410.479 -71.3209L408.741 -72.3541C398.45 -78.5375 388.439 -85.5678 378.196 -93.8055L376.915 -94.8416C368.835 -101.406 360.385 -108.702 349.856 -118.215L342.525 -124.859C334.989 -131.665 325.89 -139.765 316.663 -147.536C306.293 -156.267 295.777 -164.448 285.401 -171.854L283.712 -173.053C274.653 -179.454 264.74 -185.976 252.698 -193.461C248.409 -196.114 244.117 -198.752 239.825 -201.383L233.391 -205.326C228.761 -208.161 224.135 -210.994 219.508 -213.842L115.133 -276.268L130.332 -284.692ZM725.843 208.075L606.672 136.801L598.643 132.046C592.903 128.644 587.161 125.242 581.412 121.844L572.783 116.751L570.562 115.448C560.825 109.745 549.653 103.395 537.928 97.9699C525.683 92.3637 512.59 88.1868 499.013 85.5531C486.302 83.087 472.16 81.4177 455.777 80.4499C450.641 80.1464 445.425 79.8735 440.273 79.6133L427.57 78.9788C422.067 78.7008 416.496 78.407 411.016 78.0758C394.733 77.0933 380.764 75.2868 368.311 72.5559C354.385 69.5013 341.869 64.69 331.11 58.258L330.894 58.1282C320.217 51.7124 310.144 43.0308 300.959 32.3222C292.658 22.6486 284.502 11.2614 276.022 -2.48838C272.437 -8.29401 268.844 -14.2457 265.336 -20.0742L260.084 -28.8007C257.728 -32.7095 255.34 -36.6531 252.965 -40.5263C244.453 -54.4103 236.402 -66.0074 228.352 -75.9801C219.701 -86.6988 209.99 -96.2248 199.486 -104.298C188.862 -112.417 177.575 -119.508 166.96 -125.963C159.498 -130.494 152.038 -135 144.589 -139.494L133.793 -146.003L11.7768 -218.977L26.968 -227.397L141.494 -158.905L142.24 -158.455C153.021 -151.953 163.833 -145.434 174.647 -138.862L178.008 -136.809C187.589 -130.936 197.609 -124.568 207.165 -117.565C217.868 -109.671 227.696 -100.626 236.377 -90.6831C244.75 -81.094 252.993 -69.9763 261.578 -56.6962C265.37 -50.8304 269.163 -44.7971 272.886 -38.8346L276.583 -32.9045C279.4 -28.3853 282.217 -23.8638 285.052 -19.3674L286.465 -17.1402C294.686 -4.27331 302.502 6.41039 310.311 15.4628C319.41 26.0155 329.36 34.6377 339.903 41.1085L340.981 41.7613C351.934 48.3066 364.641 53.213 378.748 56.3435C389.581 58.7474 401.673 60.4994 415.56 61.6725C417.544 61.8402 419.564 61.996 421.623 62.14L430.309 62.7267L444.116 63.6343C451.373 64.1156 458.729 64.6269 465.935 65.2252C481.803 66.5438 495.609 68.6117 508.139 71.5478C521.083 74.585 533.803 79.0909 545.944 84.9407C556.811 90.2032 567.163 96.0292 579.211 103.098L584.103 105.979L592.367 110.861L601.305 116.156C605.74 118.785 610.11 121.38 614.36 123.906L726.145 190.763L725.843 208.075ZM725.718 217.039L716.337 222.239L597.926 151.421L593.218 148.626C586.75 144.787 580.277 140.945 573.795 137.108L564.064 131.358C553.791 125.304 541.767 118.377 529.067 112.77C517.011 107.485 503.741 103.6 489.625 101.221C476.951 99.0834 462.677 97.6408 445.99 96.8086C442.864 96.6538 439.734 96.5066 436.603 96.3619L424.269 95.7933C416.587 95.4327 408.8 95.0411 401.171 94.553C385.093 93.524 371.175 91.634 358.624 88.778C345.157 85.7075 332.973 81.0172 322.392 74.8315L321.291 74.1787C310.607 67.7588 300.503 59.133 291.257 48.54C282.831 38.8876 274.623 27.5861 266.163 13.9909C260.658 5.14405 255.184 -4.03544 249.89 -12.9144C247.655 -16.6641 245.419 -20.4107 243.178 -24.1434C234.641 -38.35 226.726 -50.1631 218.978 -60.2572C210.319 -71.5314 200.785 -81.3559 190.639 -89.4615C180.228 -97.7163 168.908 -104.86 158.225 -111.35C150.46 -116.061 142.697 -120.747 134.946 -125.419L125.053 -131.38L5.46271 -202.902L5.68254 -215.597L9.74351 -217.849L132.751 -144.283L133.65 -143.741C144.38 -137.27 155.141 -130.781 165.907 -124.248C176.503 -117.802 187.755 -110.731 198.256 -102.705C208.632 -94.7297 218.231 -85.3128 226.782 -74.7163C234.772 -64.8168 242.776 -53.2903 251.248 -39.4757C253.617 -35.6108 256 -31.6745 258.352 -27.7725L265.364 -16.1235C268.314 -11.2304 271.312 -6.28162 274.306 -1.43183C282.862 12.4363 291.079 23.9045 299.427 33.6312C308.516 44.2203 318.466 52.8642 329.02 59.3428L330.071 59.9797C341.025 66.5264 353.742 71.4165 367.869 74.5141C380.416 77.2676 394.488 79.0878 410.883 80.0795C417.455 80.4754 424.153 80.8183 430.708 81.1457L440.123 81.6151C445.282 81.8752 450.507 82.1488 455.648 82.452C471.946 83.4161 486.003 85.0746 498.62 87.5227C512.062 90.1316 525.003 94.2604 537.078 99.7937C548.426 105.043 559.148 111.061 571.757 118.481C583.039 125.13 594.29 131.807 605.521 138.471L725.836 210.428L725.718 217.039ZM699.085 231.784L589.157 166.041C577.895 159.344 566.616 152.642 555.304 145.961L552.791 144.48C542.679 138.542 531.872 132.457 520.22 127.501C508.261 122.452 494.886 118.741 480.466 116.474C467.769 114.477 453.877 113.128 436.747 112.226L422.08 111.463C412.131 110.938 402.019 110.364 392.164 109.596C376.337 108.365 362.542 106.276 349.988 103.209C336.304 99.8679 323.878 94.8936 313.051 88.4259L312.814 88.2832C302.085 81.8365 291.918 73.3176 282.592 62.961C273.987 53.4014 265.66 42.3024 257.137 29.028C250.975 19.4276 244.892 9.41734 238.978 -0.367264L233.936 -8.71297L232.649 -10.8334C224.757 -23.7761 217.768 -34.2781 210.838 -43.6089L209.826 -44.9671C201.125 -56.5589 191.697 -66.5568 181.801 -74.6834C172.169 -82.5719 161.91 -89.2073 149.471 -96.7448C138.395 -103.451 127.329 -110.115 116.289 -116.757L5.10368 -183.254L5.40603 -200.592L124.008 -129.662L141.032 -119.397C146.408 -116.153 151.789 -112.901 157.171 -109.638L159.955 -107.94C169.745 -101.943 179.947 -95.3745 189.377 -87.8921C199.399 -79.8916 208.819 -70.1823 217.374 -59.0346L218.66 -57.346C225.958 -47.6857 233.428 -36.4623 241.447 -23.11C242.93 -20.6419 244.409 -18.167 245.887 -15.6894L248.104 -11.9714C253.42 -3.05627 258.916 6.16217 264.448 15.051C272.973 28.741 281.243 40.1267 289.733 49.8581C298.852 60.314 308.817 68.8876 319.365 75.3616L320.472 76.0328C331.433 82.5836 344.113 87.5287 358.162 90.731C370.798 93.6111 384.819 95.5154 401.026 96.5531C408.657 97.0413 416.44 97.4331 424.117 97.7936L431.749 98.1461C436.461 98.3631 441.172 98.5782 445.874 98.8118L448.618 98.9545C464.042 99.7953 477.367 101.186 489.276 103.196C503.232 105.548 516.344 109.387 528.245 114.606C539.981 119.785 551.157 126.118 560.893 131.828L563.031 133.086C569.317 136.793 575.592 140.509 581.858 144.226L596.876 153.137L714.287 223.358L699.085 231.784ZM681.874 241.347L546.632 160.462L543.203 158.479C533.549 152.909 522.826 146.899 511.45 142.171C499.594 137.245 486.196 133.577 471.628 131.27L469.873 130.998C458.112 129.204 445.13 127.865 429.289 126.811L419.724 126.184C407.828 125.396 395.713 124.538 383.96 123.374C368.433 121.835 354.802 119.472 342.286 116.15C328.801 112.57 316.448 107.458 305.572 100.959L305.314 100.804C294.543 94.3319 284.298 85.9477 274.858 75.8811C266.037 66.4721 257.545 55.6447 248.897 42.779C242.086 32.6423 235.491 22.1819 229.082 11.9071L225.26 5.76855C216.226 -8.74406 208.512 -20.1651 200.982 -30.1729C192.204 -41.8393 182.803 -51.8791 173.041 -60.0105C162.525 -68.7705 150.856 -76.0271 140.743 -82.1421C129.667 -88.8396 118.6 -95.4937 107.551 -102.137L4.76558 -163.609L5.06775 -180.94L115.266 -115.035C126.302 -108.395 137.366 -101.731 148.439 -95.0266L150.806 -93.5872C162.116 -86.6789 171.611 -80.44 180.537 -73.1308C190.32 -65.0897 199.637 -55.2084 208.232 -43.7585L208.771 -43.0356L209.312 -42.308C216.562 -32.5305 223.874 -21.4774 232.219 -7.68437L235.302 -2.58565C237.324 0.763107 239.374 4.14859 241.435 7.54163C244.369 12.3719 247.333 17.2201 250.331 22.0163C251.073 23.2028 251.822 24.3688 252.567 25.548L254.489 28.5943L255.458 30.1142C264.034 43.4767 272.425 54.6601 281.112 64.3067C290.302 74.513 300.303 82.9624 310.857 89.4393L312.031 90.1509C323.026 96.72 335.639 101.77 349.517 105.16C362.182 108.253 376.082 110.359 392.014 111.598C401.882 112.366 411.998 112.941 421.949 113.466L436.648 114.232C453.668 115.123 467.494 116.466 480.16 118.457C494.418 120.7 507.637 124.365 519.445 129.35C531.939 134.664 543.511 141.324 554.293 147.69C565.603 154.371 576.882 161.072 588.14 167.768L697.07 232.915L681.874 241.347ZM664.633 250.884L537.888 175.082L534.463 173.089C524.818 167.491 514.106 161.45 502.747 156.711C490.959 151.791 477.611 148.046 463.074 145.581L461.442 145.308C450.221 143.459 437.656 141.948 422.222 140.588L419.942 140.39C414.813 139.951 409.728 139.509 404.687 139.048L402.005 138.801C399.768 138.592 397.543 138.377 395.324 138.157C393.393 137.965 391.468 137.768 389.549 137.565C388.151 137.418 386.755 137.267 385.364 137.113C383.733 136.931 382.105 136.745 380.483 136.553L376.396 136.061C361.157 134.153 347.714 131.478 335.295 127.883C322.009 124.037 309.736 118.778 298.818 112.255C287.899 105.719 277.469 97.4295 267.83 87.5919C258.812 78.3887 250.134 67.8712 241.301 55.4389C240.091 53.7356 238.888 52.0199 237.69 50.2969C231.784 41.8007 225.975 33.0248 220.401 24.4973L215.737 17.3495C209.493 7.81343 203.922 -0.306717 198.665 -7.52168L198.103 -8.29128C196.171 -10.9315 194.281 -13.4496 192.414 -15.8722C183.494 -27.4478 174.047 -37.4069 164.338 -45.4687C154.361 -53.7522 143.819 -60.4037 132.057 -67.6313L4.4225 -143.964L4.72638 -161.293L106.534 -100.406C117.567 -93.7715 128.632 -87.1198 139.708 -80.4214L141.808 -79.148C151.35 -73.3439 162.067 -66.539 171.76 -58.4655C181.396 -50.4394 190.689 -40.5128 199.384 -28.961L200.427 -27.5669C207.569 -17.974 214.954 -6.98982 223.56 6.83437L227.401 13.0006C233.838 23.3204 240.454 33.8149 247.238 43.9032C255.948 56.8633 264.505 67.773 273.398 77.2566C282.674 87.1516 292.724 95.4427 303.29 101.924L304.546 102.685C315.579 109.279 328.104 114.462 341.772 118.091C354.39 121.443 368.124 123.824 383.761 125.372C396.764 126.661 410.192 127.574 423.282 128.432L427.965 128.737L431.499 128.975C446.994 130.054 459.723 131.424 471.314 133.255C485.711 135.531 498.956 139.155 510.681 144.027C523.301 149.271 535.166 156.143 545.621 162.197L679.832 242.466L664.633 250.884ZM647.426 260.443L529.147 189.704L524.561 187.025C515.227 181.594 504.936 175.809 494.12 171.166C482.281 166.085 469.417 162.261 454.792 159.477L453.242 159.186C441.831 157.065 429.398 155.286 413.331 153.474L407.617 152.832C395.636 151.476 382.261 149.877 369.369 147.886C354.422 145.578 341.172 142.577 328.86 138.71C315.786 134.607 303.593 129.204 292.622 122.647L292.348 122.482L290.996 121.643C290.161 121.13 289.327 120.619 288.497 120.088C280.759 115.114 273.253 109.337 266.109 102.851C265.748 102.523 265.383 102.207 265.023 101.876L264.779 101.644C263.63 100.579 262.488 99.4986 261.359 98.3964C252.146 89.4122 243.271 79.2194 234.226 67.2327L232.718 65.2259C225.447 55.5041 218.364 45.4234 210.182 33.5611L208.086 30.5242C198.83 17.1464 191.389 7.05151 184.107 -2.01419C174.866 -13.5156 165.572 -23.0079 155.693 -31.0331C145.588 -39.2414 134.613 -46.1109 123.313 -53.01L4.08543 -124.315L4.38846 -141.651L131.025 -65.9135L134.877 -63.5379C145.033 -57.2438 154.287 -51.2116 163.066 -43.922C172.663 -35.9519 182.005 -26.101 190.835 -14.6427C193.342 -11.389 195.891 -7.96312 198.527 -4.30234L199.409 -3.07329C204.141 3.54675 209.166 10.9426 214.733 19.4695L218.296 24.9359C224.129 33.8688 230.242 43.1156 236.531 52.1354C237.577 53.6353 238.625 55.1259 239.675 56.6042C248.566 69.1213 257.31 79.7171 266.406 88.9985C275.782 98.5664 285.893 106.695 296.481 113.181L297.798 113.979C308.863 120.591 321.292 125.917 334.743 129.811C347.262 133.436 360.808 136.131 376.153 138.052L377.801 138.244C380.245 138.542 382.701 138.828 385.172 139.103C386.535 139.254 387.904 139.402 389.273 139.547C391.23 139.754 393.194 139.955 395.165 140.15L398.436 140.47L403.16 140.917L404.604 141.049C408.371 141.393 412.151 141.73 415.959 142.062L422.047 142.588C438.169 144.007 451.151 145.595 462.743 147.561C477.132 150.001 490.332 153.702 501.982 158.563C514.611 163.833 526.447 170.735 536.88 176.82L662.621 252.021L647.426 260.443ZM612.965 279.53L511.673 218.951L508.204 216.901C505.911 215.549 503.656 214.224 501.423 212.923L498.731 211.357L497.156 210.448L494.485 208.916C488.748 205.643 483.082 202.518 477.261 199.503L477.195 199.471C464.644 194.054 451.728 189.633 438.804 186.331L436.57 185.768C426.329 183.217 415.12 180.867 400.904 178.291L391.449 176.596C389.911 176.319 388.397 176.045 386.902 175.772L383.169 175.085L380.654 174.616L377.063 173.939L375.267 173.595L371.992 172.96L370.041 172.575L366.744 171.917L364.956 171.551L361.431 170.823C360.482 170.624 359.537 170.419 358.59 170.215C357.855 170.058 357.117 169.903 356.384 169.742C341.997 166.598 329.131 162.945 317.049 158.579C313.869 157.43 310.73 156.213 307.64 154.933C298.468 151.13 289.714 146.751 281.507 141.866L281.227 141.704C271.308 135.724 261.618 128.724 252.441 120.81L251.297 119.815C250.692 119.285 250.081 118.763 249.479 118.225C239.926 109.674 230.661 100.122 221.154 89.0225C212.682 79.1366 204.299 68.6845 196.433 58.7385L193.403 54.9052C183.571 42.5034 175.702 33.1457 168.048 24.745C159.137 14.9701 149.29 5.72066 138.727 -2.78961C128.87 -9.65331 118.593 -16.0273 109.377 -21.6165L105.644 -23.8737L3.39601 -85.0225L3.69836 -102.361L113.54 -36.67L116.896 -34.6289C126.461 -28.7962 136.46 -22.5315 146.103 -15.5849C156.299 -6.91435 165.846 2.63215 174.483 12.7895L175.962 14.5398C182.883 22.7786 190.112 32.051 199.024 44.1237L200.309 45.8677C208.39 56.8538 217.093 68.5485 225.991 79.6182C235.315 91.2207 244.448 101.158 253.916 109.999C263.816 119.246 274.413 127.285 285.419 133.898L285.779 134.113C296.909 140.763 309.155 146.367 322.181 150.768C334.47 154.922 347.616 158.274 362.371 161.015C375.094 163.377 387.898 165.332 403.053 167.503L404.576 167.721C421.684 170.166 434.551 172.405 446.297 174.978C459.437 177.857 472.458 181.87 485.001 186.907C496.573 192.686 507.871 199.262 519.383 206.05L628.16 271.108L612.965 279.53ZM593.703 290.214L578.507 298.636L494.181 248.204C483.894 242.048 473.785 236.031 463.507 230.227L460.032 228.277C448.27 222.457 435.914 217.136 423.265 212.446C411.562 208.692 399.209 205.129 385.557 201.568L377.297 199.427C366.335 196.58 355.14 193.628 344.095 190.454C330.184 186.455 317.685 182.177 305.883 177.378C293.944 172.52 282.503 166.885 271.85 160.615L269.971 159.498C259.082 152.956 248.41 145.381 238.245 136.979C228.434 128.873 218.792 119.935 208.764 109.654L206.885 107.723C199.082 99.6764 191.546 91.5789 182.863 82.1841L180.757 79.9038C170.764 69.0852 161.5 59.5476 152.403 50.7177C142.433 41.848 132.054 33.5167 121.513 25.9264C111.219 19.2564 100.596 12.8238 90.4924 6.77148L2.70266 -45.7316L3.00517 -63.061L98.5844 -5.89685C109.874 0.877632 119.505 6.80719 128.985 13.1461C139.219 20.9135 149.314 29.5741 158.956 38.8543L160.731 40.7548C168.449 49.0489 176.49 58.1164 185.221 68.3686L191.103 75.2781C199.037 84.5701 206.125 92.7124 213.451 100.735C223.287 111.5 232.798 120.802 242.53 129.169C247.629 133.553 252.875 137.696 258.231 141.576C259.109 142.211 259.993 142.829 260.878 143.452L262.182 144.374C263.116 145.022 264.056 145.651 264.996 146.281L266.275 147.146L267.205 147.749L268.136 148.349C268.946 148.873 269.755 149.399 270.568 149.911L271.004 150.179C272.118 150.877 273.233 151.57 274.355 152.244L274.808 152.515C285.98 159.185 298.064 165.033 310.723 169.896C322.759 174.523 335.518 178.51 349.726 182.084C362.519 185.304 375.763 188.224 387.476 190.752L390.371 191.375C405.225 194.569 418.407 197.729 430.62 201.019C443.531 205.242 456.034 210.155 467.781 215.622C478.868 221.611 489.676 227.995 499.862 234.088L593.703 290.214ZM559.253 309.3L544.054 317.726L466.599 271.406C458.383 266.5 450.587 261.866 442.743 257.263C431.165 250.89 419.231 244.887 407.241 239.408C395.449 234.497 383.183 229.752 369.73 224.898L356.71 220.356C348.381 217.444 339.932 214.469 331.633 211.455C318.062 206.522 305.927 201.621 294.535 196.472C282.327 190.953 270.534 184.806 259.483 178.204C248.4 171.561 237.441 164.137 226.833 156.029C216.9 148.441 206.879 140.113 196.197 130.57C188.147 123.379 180.057 115.974 172.172 108.739L166.522 103.552C156.029 94.1152 146.147 85.612 136.284 77.5342C125.938 69.6262 115.15 61.9925 104.193 54.8337L101.198 53.0015C90.7112 46.5988 80.2077 40.3175 70.846 34.7222L2.02113 -6.43707L2.32399 -23.7768L78.6261 21.8555C86.5369 26.5855 94.3135 31.2534 101.993 35.9668L104.917 37.7713L107.832 39.5815C109.143 40.396 110.461 41.2064 111.766 42.0272C122.38 49.2934 132.926 57.2251 143.082 65.5754C152.657 74.0821 162.484 83.3279 172.287 93.0548L181.493 102.192C187.967 108.609 194.571 115.115 201.171 121.432L202.198 122.409L203.223 123.377C211.865 131.567 220.18 138.89 228.491 145.625L229.738 146.631C230.283 147.068 230.827 147.513 231.372 147.946C241.412 155.928 251.85 163.246 262.503 169.675L264.03 170.59C275.152 177.235 287.086 183.309 299.498 188.643C311.136 193.643 323.51 198.253 337.325 202.737C340.069 203.628 342.831 204.51 345.601 205.386C347.08 205.853 348.564 206.314 350.046 206.776C351.282 207.163 352.518 207.553 353.755 207.937C357.162 208.993 360.566 210.04 363.947 211.076L376.26 214.839C389.577 218.917 402.478 223.257 414.568 227.729C426.799 232.802 438.88 238.454 450.443 244.51C460.439 250.245 470.225 256.059 480.84 262.405L559.253 309.3ZM2.36678 -26.0808L2.66981 -43.4111L87.301 7.20247C97.9273 13.5582 109.24 20.3674 120.378 27.581C130.818 35.1011 141.144 43.3893 151.035 52.1869C160.068 60.9584 169.307 70.4694 179.281 81.2651L183.846 86.2048C191.222 94.1749 199.25 102.784 207.325 111.055C217.408 121.39 227.102 130.376 236.962 138.526C247.203 146.989 257.951 154.619 268.919 161.209L269.431 161.515C280.561 168.167 292.57 174.128 305.122 179.237C316.989 184.065 329.554 188.366 343.535 192.38C356.932 196.227 370.959 199.86 383.333 203.065L386.501 203.891C399.601 207.334 411.452 210.765 422.604 214.341C435.15 218.994 447.441 224.286 459.093 230.05C470.533 236.433 481.728 243.092 493.142 249.923L576.48 299.763L561.288 308.182L477.887 258.309C468.934 252.969 460.871 248.2 452.568 243.423L451.4 242.754C439.792 236.669 427.656 230.991 415.295 225.865C403.133 221.367 390.196 217.014 376.842 212.924L364.155 209.047C360.932 208.06 357.688 207.063 354.441 206.055C348.922 204.343 343.395 202.603 337.939 200.832C324.182 196.367 311.866 191.778 300.285 186.802C287.953 181.505 276.101 175.472 265.052 168.871C254.033 162.296 243.094 154.704 232.619 146.382L231.734 145.673L230.849 144.958C222.401 138.16 213.956 130.765 205.173 122.47L203.432 120.823C203.141 120.547 202.849 120.269 202.557 119.989C195.945 113.656 189.322 107.133 182.83 100.698L173.7 91.637C163.865 81.8802 154.012 72.6105 144.385 64.0576C134.152 55.6434 123.559 47.6768 112.867 40.3578L111.52 39.5204C102.211 33.6912 92.7938 28.005 83.1968 22.2589L71.3618 15.1796L2.36678 -26.0808ZM3.35837 -82.7154L104.612 -22.1609L108.335 -19.9094C117.524 -14.3366 127.765 -7.98522 137.524 -1.19183C147.95 7.20996 157.721 16.3886 166.567 26.0902L167.581 27.2068C174.691 35.0672 182.093 43.8849 191.203 55.3541L196.558 62.1208C203.941 71.4321 211.745 81.1181 219.631 90.3227C229.202 101.491 238.528 111.106 248.141 119.713C248.663 120.181 249.195 120.634 249.722 121.096C250.468 121.751 251.21 122.412 251.963 123.056L252.25 123.295C260.674 130.469 269.503 136.894 278.579 142.441L280.02 143.313L280.484 143.585C288.762 148.515 297.603 152.938 306.873 156.78C309.993 158.074 313.161 159.302 316.372 160.462C328.51 164.854 341.459 168.528 355.96 171.698L357.059 171.935L361.018 172.779L362.723 173.132C363.932 173.383 365.143 173.633 366.362 173.88L369.61 174.529L372.288 175.055L375.467 175.67L378.718 176.287L381.716 176.85L386.695 177.767L391.764 178.686L400.548 180.261C415.763 183.017 427.513 185.512 438.313 188.271C451.093 191.535 463.897 195.916 476.372 201.296L478.276 202.296C479.07 202.714 479.867 203.127 480.657 203.549L481.763 204.148C482.832 204.721 483.9 205.295 484.963 205.877L486.053 206.481C487.109 207.063 488.165 207.645 489.218 208.235L490.828 209.145C491.705 209.638 492.581 210.131 493.456 210.631L496.5 212.379L498.579 213.581C502.592 215.91 506.604 218.279 510.639 220.672L610.937 280.656L595.743 289.079L502.934 233.574C492.068 227.071 480.474 220.191 468.66 213.814C456.814 208.302 444.227 203.355 431.202 199.094C418.905 195.782 405.69 192.614 390.802 189.412L385.877 188.35C374.304 185.845 362.19 183.152 350.224 180.138C336.116 176.586 323.432 172.624 311.449 168.02C298.876 163.191 286.895 157.394 275.842 150.789C264.832 144.234 254.038 136.41 243.842 127.644C234.148 119.308 224.693 110.062 214.936 99.3792C206.62 90.2757 198.59 80.9626 190.994 72.0478L185.741 65.8789C176.691 55.2892 168.387 45.9743 160.387 37.4415C150.622 28.0463 140.466 19.3331 130.155 11.509C119.852 4.62211 109.474 -1.72836 97.0845 -9.14219L3.05585 -65.3743L3.35837 -82.7154ZM122.284 -51.2907C133.53 -44.424 144.451 -37.5901 154.437 -29.4722C164.21 -21.5279 173.408 -12.1341 182.553 -0.753632L183.52 0.455544C190.461 9.16818 197.623 18.9196 206.446 31.6695L211.053 38.3399C218.765 49.4798 225.572 59.0888 232.634 68.4458C241.741 80.5119 250.682 90.7793 259.966 99.8354C261.945 101.768 263.963 103.626 266.001 105.443C266.493 105.881 266.98 106.332 267.476 106.764L268.4 107.548C274.506 112.805 280.849 117.558 287.374 121.744C288.385 122.395 289.406 123.019 290.427 123.644L291.599 124.371C302.707 131.009 315.043 136.477 328.266 140.625C340.673 144.522 354.02 147.546 369.068 149.869C380.87 151.693 393.066 153.187 404.231 154.467L414.2 155.592C430.442 157.442 442.923 159.26 454.423 161.45C468.893 164.202 481.622 167.983 493.335 173.011C505.876 178.394 517.704 185.326 528.133 191.439L645.38 261.561L630.185 269.983L520.406 204.327L516.821 202.218C506.156 195.957 496.261 190.289 485.782 185.059C473.124 179.974 459.982 175.923 446.724 173.02L445.205 172.69C434.527 170.395 422.898 168.361 408.082 166.2L399.262 164.932C387.844 163.28 375.16 161.353 362.735 159.044C348.074 156.319 335.016 152.991 322.817 148.868C309.928 144.511 297.811 138.969 286.804 132.391L286.552 132.24C285.959 131.882 285.37 131.507 284.78 131.142L283.347 130.261C283.109 130.113 282.871 129.964 282.634 129.812C276.616 125.972 270.734 121.702 265.033 117.045L262.789 115.199C262.414 114.884 262.047 114.555 261.673 114.235C259.515 112.387 257.378 110.494 255.279 108.533C245.902 99.779 236.831 89.9097 227.549 78.3602C219.3 68.0964 211.168 57.2287 203.545 46.885L201.919 44.6769C191.736 30.83 183.744 20.5949 176.005 11.4888C167.314 1.26041 157.689 -8.36211 147.335 -17.1629C136.434 -25.0193 125.174 -31.9545 114.57 -38.3888L3.73635 -104.673L4.04058 -122.007L122.284 -51.2907ZM3.70334 -216.786L3.48384 -204.073L3.4667 -204.083L3.0834 -182.132L3.08769 -182.129L2.4036 -142.842L2.40788 -142.84L2.10537 -125.499L2.10108 -125.501L1.71693 -103.551L1.71864 -103.55L1.37488 -83.9014L1.37831 -83.8993L1.07527 -66.5457L1.0667 -66.5509L0.683747 -44.5986L0.691461 -44.594L0.388436 -27.2637L0.385008 -27.2657L0 -5.31589L80.9464 43.0973C88.1294 47.4052 95.6646 51.9502 103.123 56.523C114.014 63.6399 124.763 71.244 135.044 79.1026C144.855 87.1387 154.716 95.6218 165.176 105.031L167.873 107.508C176.686 115.597 185.798 123.962 194.865 132.062C205.585 141.639 215.644 149.998 225.619 157.62C235.518 165.183 245.745 172.189 256.054 178.47L258.456 179.921C269.573 186.562 281.434 192.744 293.711 198.293C305.15 203.464 317.331 208.385 330.95 213.335C339.259 216.352 347.713 219.33 356.047 222.243L369.061 226.784C382.473 231.623 394.711 236.356 406.441 241.241C418.354 246.686 430.243 252.666 441.756 259.001L444.741 260.756C452.206 265.151 459.693 269.609 467.601 274.333L544.016 320.034L561.239 310.487L561.247 310.492L580.495 299.824L580.492 299.823L597.71 290.279L597.706 290.277L614.953 280.718L614.95 280.717L632.168 271.173L632.166 271.172L647.364 262.747L647.379 262.757L666.628 252.087L666.611 252.076L681.817 243.652L681.828 243.659L701.076 232.98L701.065 232.973L716.284 224.538L716.299 224.547L727.697 218.228L727.856 209.279L727.824 209.259L728.125 191.933L728.146 191.945L728.53 169.994L728.512 169.983L728.816 152.636L728.833 152.646L729.216 130.694L729.211 130.691L729.513 113.357L729.517 113.359L729.899 91.4073L729.888 91.4006L730.232 71.7653L600.198 -6.00552C597.316 -7.5921 594.439 -9.19095 591.565 -10.7938L581.905 -16.1847C577.418 -18.6846 572.864 -21.206 568.311 -23.6705L565.578 -25.1423C554.323 -31.1692 542.337 -37.111 529.956 -42.8026L526.346 -44.4456C517.587 -48.4092 508.079 -52.55 496.321 -57.5216L489.943 -60.214C480.337 -64.2814 468.5 -69.3916 456.849 -74.8591C444.232 -80.7723 432.802 -86.8154 421.906 -93.332C411.472 -99.5465 401.227 -106.418 390.594 -114.265L389.141 -115.341C379.151 -122.767 369.394 -130.489 361.439 -136.882L353.501 -143.279C345.681 -149.565 336.235 -157.065 326.651 -164.329C315.911 -172.473 305.109 -180.17 294.547 -187.206C289.394 -190.638 284.141 -194.035 278.961 -197.361L273.812 -200.661C269.764 -203.254 265.72 -205.845 261.662 -208.478L130.37 -287L95.9215 -267.904L95.9198 -267.905L42.2116 -238.134L42.2176 -238.131L27.0105 -229.702L27.0053 -229.705L3.70334 -216.786Z" fill="url(#paint0_linear_43_21874)"/>
<defs>
<linearGradient id="paint0_linear_43_21874" x1="3.8608" y1="43.1379" x2="311.153" y2="392.031" gradientUnits="userSpaceOnUse">
<stop stop-color="#FDD315" stop-opacity="0"/>
<stop offset="0.538482" stop-color="#F8BA30"/>
<stop offset="1" stop-color="#FDD418" stop-opacity="0"/>
</linearGradient>
</defs>
</svg>
