<svg width="20" height="20" viewBox="0 0 20 20" fill="none" xmlns="http://www.w3.org/2000/svg">
<circle cx="10" cy="10" r="10" fill="#FFC629" fill-opacity="0.12"/>
<path d="M15.3542 6.18717L13.9245 5.05957C13.8802 5.02311 13.8255 4.99707 13.763 4.99707C13.7005 4.99707 13.6432 5.02311 13.599 5.06217L8.39844 11.7445C8.39844 11.7445 6.35417 9.77832 6.29687 9.72103C6.23958 9.66374 6.16406 9.56738 6.04948 9.56738C5.9349 9.56738 5.88281 9.64811 5.82292 9.70801C5.77865 9.75488 5.04948 10.5205 4.6901 10.9007C4.66927 10.9242 4.65625 10.9372 4.63802 10.9554C4.60677 10.9997 4.58594 11.0492 4.58594 11.1038C4.58594 11.1611 4.60677 11.208 4.63802 11.2523L4.71094 11.32C4.71094 11.32 8.33854 14.8044 8.39844 14.8643C8.45833 14.9242 8.53125 14.9997 8.63802 14.9997C8.74219 14.9997 8.82812 14.8877 8.8776 14.8382L15.3646 6.50488C15.3958 6.46061 15.4167 6.41113 15.4167 6.35384C15.4167 6.28874 15.3906 6.23405 15.3542 6.18717Z" fill="#FFC629"/>
</svg>
