<svg width="19" height="16" viewBox="0 0 19 16" fill="none" xmlns="http://www.w3.org/2000/svg">
<path d="M9.90223 16C9.5924 16 9.2866 16 8.97677 16C8.95263 15.9932 8.92849 15.9796 8.90435 15.9762C8.58647 15.9455 8.26457 15.9353 7.9467 15.8876C5.82619 15.5811 4.01551 14.774 2.54685 13.439C1.21901 12.2335 0.410242 10.8099 0.124557 9.17526C0.0802962 8.91984 0.0440826 8.66102 0.00384521 8.40219C0.00384521 8.12975 0.00384521 7.8573 0.00384521 7.58486C0.0159164 7.53378 0.0360351 7.4861 0.0400588 7.43502C0.100415 6.60406 0.32172 5.80035 0.68788 5.02728C2.30945 1.59788 6.46194 -0.414803 10.7231 0.0721925C12.6022 0.286743 14.268 0.926988 15.6884 1.99293C17.3341 3.22574 18.3641 4.76165 18.7544 6.59725C18.8269 6.9344 18.8631 7.27836 18.9154 7.61892C18.9154 7.86752 18.9154 8.11953 18.9154 8.36814C18.9033 8.42263 18.8872 8.47712 18.8792 8.53161C18.7987 8.98455 18.7705 9.4477 18.6257 9.88702C17.5473 13.1632 15.0405 15.1554 11.1134 15.8604C10.715 15.9319 10.3046 15.9557 9.90223 16ZM9.46364 1.45826C5.21458 1.45826 1.73405 4.39044 1.73405 7.97309C1.73003 11.5898 5.20251 14.5424 9.45157 14.5356C13.7208 14.5288 17.1892 11.5898 17.1852 7.98331C17.1852 4.39725 13.7047 1.45485 9.46364 1.45826Z" fill="black"/>
<path d="M8.59854 5.80377C8.59854 5.09541 8.59452 4.38706 8.60256 3.6753C8.60659 3.17127 9.04517 2.85115 9.6085 2.91926C9.96259 2.96353 10.2603 3.21555 10.3046 3.51864C10.3167 3.60718 10.3207 3.69913 10.3207 3.79109C10.3207 5.03411 10.3247 6.27714 10.3167 7.51677C10.3167 7.63937 10.3569 7.72791 10.4615 7.81305C11.1818 8.41584 11.898 9.01862 12.6102 9.62822C13.0971 10.0471 12.9039 10.7078 12.2521 10.861C11.9463 10.9325 11.6606 10.8781 11.4353 10.6908C10.5621 9.95856 9.69702 9.22295 8.83192 8.48735C8.64682 8.32729 8.59452 8.12636 8.59854 7.90841C8.59854 7.21027 8.59854 6.50872 8.59854 5.80377Z" fill="black"/>
</svg>
