<svg width="18" height="18" viewBox="0 0 18 18" fill="none" xmlns="http://www.w3.org/2000/svg">
<path fill-rule="evenodd" clip-rule="evenodd" d="M7.125 1.875C7.125 0.839466 7.96447 0 9 0C10.0355 0 10.875 0.839466 10.875 1.875C10.875 2.45728 10.6096 2.97756 10.1931 3.32147L11.621 8.3184L14.3792 5.56022C14.2958 5.34797 14.25 5.11683 14.25 4.875C14.25 3.83947 15.0895 3 16.125 3C17.1605 3 18 3.83947 18 4.875C18 5.82281 17.2967 6.60637 16.3836 6.73232L14.4888 13.5H15.75C16.1642 13.5 16.5 13.8358 16.5 14.25V17.25C16.5 17.6642 16.1642 18 15.75 18H2.25C1.83579 18 1.5 17.6642 1.5 17.25V14.25C1.5 13.8358 1.83579 13.5 2.25 13.5H3.51116L1.61643 6.73232C0.703256 6.60636 0 5.82281 0 4.875C0 3.83947 0.839466 3 1.875 3C2.91053 3 3.75 3.83947 3.75 4.875C3.75 5.11682 3.70422 5.34794 3.62086 5.56018L6.37908 8.3184L7.80692 3.32151C7.39044 2.9776 7.125 2.4573 7.125 1.875ZM4.48275 15C4.49393 15.0003 4.50515 15.0003 4.51639 15H13.4836C13.4948 15.0003 13.5061 15.0003 13.5172 15H15V16.5H3V15H4.48275ZM12.9311 13.5H5.06884L3.36946 7.4301L6.2197 10.2803C6.4076 10.4682 6.68091 10.5427 6.93815 10.476C7.19539 10.4094 7.39815 10.2116 7.47116 9.95606L9.00003 4.60562L10.5289 9.95606C10.6019 10.2116 10.8047 10.4094 11.0619 10.476C11.3192 10.5427 11.5925 10.4682 11.7804 10.2803L14.6305 7.43021L12.9311 13.5Z" fill="#101828"/>
</svg>
