<svg width="20" height="20" viewBox="0 0 20 20" fill="none" xmlns="http://www.w3.org/2000/svg">
<path d="M12.5 15.8333C12.5 16.712 11.8201 17.4318 10.9577 17.4954L10.8333 17.5H9.16665C8.28802 17.5 7.56818 16.8201 7.50456 15.9577L7.49999 15.8333H12.5ZM10.0002 1.66663C13.1547 1.66663 15.7244 4.17061 15.8301 7.29942L15.8335 7.49996V10.6365L17.3518 13.6734C17.6421 14.2539 17.2539 14.9319 16.6277 14.9952L16.532 15H3.4683C2.81931 15 2.38641 14.3495 2.6099 13.7611L2.6484 13.6734L4.16679 10.6365V7.49996C4.16679 4.2783 6.77846 1.66663 10.0002 1.66663Z" fill="#FFC629"/>
</svg>
