<svg width="23" height="23" viewBox="0 0 23 23" fill="none" xmlns="http://www.w3.org/2000/svg">
<path d="M11.8424 14.9058C12.2931 15.0751 12.8132 15.0487 13.2626 14.7892L17.5927 12.2892C18.3899 11.829 18.663 10.8096 18.2027 10.0125L16.1194 6.40405C15.6592 5.60689 14.6399 5.33377 13.8427 5.79401L9.51258 8.29401C8.97341 8.60529 8.67399 9.17233 8.67908 9.75342C8.61349 9.78077 8.54899 9.81262 8.48583 9.84907L4.87738 11.9324C4.33825 12.2437 4.03881 12.8107 4.04383 13.3917C3.97831 13.4191 3.91379 13.4509 3.85067 13.4874L2.40729 14.3207C1.61014 14.781 1.33702 15.8002 1.79725 16.5974L2.21392 17.3191C2.67416 18.1162 3.69348 18.3894 4.49063 17.9292L5.934 17.0958C5.99712 17.0594 6.05693 17.0194 6.11338 16.9764C6.61408 17.2713 7.25488 17.2955 7.79405 16.9842L9.30799 16.1102L7.56735 20.1717C7.38605 20.5947 7.58201 21.0847 8.00503 21.2659C8.42808 21.4472 8.91799 21.2512 9.09924 20.8282L10.8333 16.7822L12.5673 20.8282C12.7487 21.2512 13.2386 21.4472 13.6616 21.2659C14.0846 21.0847 14.2806 20.5947 14.0992 20.1717L11.8424 14.9058Z" fill="#FFC629"/>
<circle cx="19.5" cy="3.5" r="3" fill="#D92D20" stroke="#344054"/>
</svg>
