<svg width="25" height="26" viewBox="0 0 25 26" fill="none" xmlns="http://www.w3.org/2000/svg">
<path fill-rule="evenodd" clip-rule="evenodd" d="M3.88919 6.04079L0.297444 11.6736C-0.171154 12.3955 -0.078024 13.3564 0.519969 13.9695L11.2461 24.9673C11.9387 25.6775 13.0613 25.6775 13.7539 24.9673L24.48 13.9695C25.078 13.3564 25.1712 12.3955 24.7026 11.6736L21.1474 6.04079C20.9281 5.70296 20.8643 5.5 20.4687 5.5H4.8735C4.47788 5.5 4.10847 5.70296 3.88919 6.04079ZM9.11363 13.3481C8.69798 12.9217 8.02409 12.9217 7.60844 13.3481C7.1928 13.7746 7.1928 14.4659 7.60844 14.8924L11.7475 19.1389C12.1631 19.5653 12.837 19.5653 13.2527 19.1389L17.3917 14.8924C17.8074 14.4659 17.8074 13.7746 17.3917 13.3481C16.9761 12.9217 16.3022 12.9217 15.8865 13.3481L12.5001 16.8225L9.11363 13.3481Z" fill="#FFC629"/>
<rect x="3.12109" y="18.5" width="3" height="3" transform="rotate(45 3.12109 18.5)" fill="#FFC629"/>
<rect x="22.9492" y="19.5" width="1" height="1" transform="rotate(45 22.9492 19.5)" fill="#FFC629"/>
<path fill-rule="evenodd" clip-rule="evenodd" d="M5.5581 2.59644L8.77185 3.44387L12.3485 0.614481C12.5415 0.461839 12.7998 0.46184 12.9928 0.614481L16.5694 3.44387L19.7832 2.59644C20.1329 2.50422 20.4682 2.80028 20.4682 3.20131V5.15674C20.4682 5.5 20.4682 5.5 20.4682 5.5H5.43002C5.12241 5.5 4.87305 5.5 4.87305 5.5V3.20131C4.87305 2.80028 5.20835 2.50422 5.5581 2.59644ZM11.81 3.15364L12.3955 2.53605C12.5475 2.37572 12.7938 2.37572 12.9458 2.53605L13.5313 3.15364C13.6833 3.31397 13.6833 3.57377 13.5313 3.7341L12.9458 4.35169C12.7938 4.51202 12.5475 4.51202 12.3955 4.35169L11.81 3.7341C11.6579 3.57377 11.6579 3.31397 11.81 3.15364Z" fill="url(#paint0_linear_850_23034)"/>
<rect x="22.4141" y="2.5" width="2" height="2" transform="rotate(45 22.4141 2.5)" fill="#FFC629"/>
<defs>
<linearGradient id="paint0_linear_850_23034" x1="20.4682" y1="5.47221" x2="7.60407" y2="10.2854" gradientUnits="userSpaceOnUse">
<stop offset="0.318484" stop-color="#FFF492"/>
<stop offset="0.761232" stop-color="#FFD43E"/>
</linearGradient>
</defs>
</svg>
