<svg width="22" height="21" viewBox="0 0 22 21" fill="none" xmlns="http://www.w3.org/2000/svg">
<path fill-rule="evenodd" clip-rule="evenodd" d="M10.3544 0.775908C10.7628 0.581208 11.2372 0.581208 11.6456 0.775908C11.9986 0.944223 12.1932 1.23646 12.2914 1.39678C12.3928 1.56253 12.497 1.77366 12.5985 1.97946C12.6037 1.98997 12.6089 2.00046 12.6141 2.01094L14.7543 6.34672L19.5763 7.05153C19.8033 7.08466 20.0362 7.11866 20.2251 7.16409C20.4079 7.20803 20.7458 7.30308 21.0147 7.58693C21.3258 7.91529 21.4721 8.3665 21.4129 8.81494C21.3617 9.20257 21.1438 9.47782 21.0216 9.62065C20.8953 9.76828 20.7267 9.93246 20.5623 10.0925L17.0745 13.4896L17.8975 18.2878C17.9363 18.5141 17.9762 18.7462 17.9915 18.94C18.0064 19.1274 18.0207 19.4783 17.834 19.822C17.6181 20.2196 17.2342 20.4985 16.7893 20.581C16.4047 20.6523 16.0754 20.5301 15.9018 20.4581C15.7222 20.3836 15.5138 20.2739 15.3107 20.167L11 17.9001L6.68933 20.167C6.48617 20.2739 6.27775 20.3836 6.0982 20.4581C5.92456 20.5301 5.59528 20.6523 5.21068 20.581C4.76581 20.4985 4.38193 20.2196 4.16597 19.822C3.97927 19.4783 3.99362 19.1274 4.00846 18.94C4.0238 18.7462 4.06366 18.5141 4.10251 18.2879L4.92547 13.4896L1.4628 10.117C1.45444 10.1088 1.44607 10.1007 1.43768 10.0925C1.27332 9.93249 1.10466 9.76829 0.978346 9.62065C0.856146 9.47782 0.638302 9.20258 0.587111 8.81494C0.52789 8.36651 0.674193 7.91529 0.985284 7.58693C1.25419 7.30308 1.5921 7.20803 1.77487 7.16409C1.96378 7.11866 2.1967 7.08466 2.42369 7.05153C2.43528 7.04984 2.44685 7.04815 2.45839 7.04646L7.24573 6.34672L9.38592 2.01094C9.39109 2.00046 9.39627 1.98996 9.40145 1.97945C9.50299 1.77366 9.60715 1.56253 9.70862 1.39678C9.80678 1.23646 10.0014 0.944223 10.3544 0.775908ZM7.14232 6.55378C7.14218 6.55403 7.14218 6.55402 7.14232 6.55378V6.55378ZM7.47457 6.31218C7.47484 6.31212 7.47485 6.31212 7.47457 6.31218V6.31218ZM17.0364 13.261C17.0364 13.2607 17.0364 13.2607 17.0364 13.261V13.261ZM11 3.25951L8.99266 7.32615C8.98882 7.33393 8.98445 7.34298 8.97953 7.35316C8.93188 7.45181 8.83322 7.65608 8.67676 7.82448C8.54469 7.96663 8.3863 8.0818 8.21036 8.16362C8.00192 8.26054 7.77719 8.29143 7.66866 8.30634C7.65746 8.30788 7.6475 8.30925 7.63892 8.3105L3.14841 8.96686L6.3963 12.1303C6.40252 12.1364 6.40979 12.1433 6.41797 12.1512C6.49721 12.227 6.66131 12.3841 6.77328 12.5852C6.8678 12.755 6.92844 12.9415 6.95183 13.1344C6.97953 13.3629 6.93921 13.5864 6.91974 13.6944C6.91773 13.7056 6.91594 13.7155 6.91447 13.724L6.14817 18.1919L10.1622 16.081C10.1699 16.077 10.1787 16.0722 10.1887 16.0668C10.2854 16.015 10.4855 15.9075 10.7113 15.8632C10.902 15.8258 11.098 15.8258 11.2887 15.8632C11.5145 15.9075 11.7146 16.015 11.8113 16.0668C11.8212 16.0722 11.8301 16.077 11.8378 16.081L15.8518 18.1919L15.0855 13.724C15.084 13.7155 15.0823 13.7056 15.0802 13.6944C15.0608 13.5864 15.0205 13.3629 15.0482 13.1344C15.0716 12.9415 15.1322 12.755 15.2267 12.5852C15.3387 12.3841 15.5028 12.227 15.582 12.1512C15.5902 12.1433 15.5975 12.1364 15.6037 12.1303L18.8516 8.96686L14.3611 8.3105C14.3525 8.30925 14.3425 8.30788 14.3313 8.30634C14.2228 8.29143 13.9981 8.26054 13.7896 8.16362C13.6137 8.0818 13.4553 7.96663 13.3232 7.82448C13.1668 7.65608 13.0681 7.45181 13.0205 7.35317C13.0155 7.34298 13.0112 7.33393 13.0073 7.32615L11 3.25951Z" fill="#101828"/>
</svg>
