<svg width="18" height="20" viewBox="0 0 18 20" fill="none" xmlns="http://www.w3.org/2000/svg">
<path fill-rule="evenodd" clip-rule="evenodd" d="M8.99999 2C7.06699 2 5.49999 3.567 5.49999 5.5C5.49999 7.433 7.06699 9 8.99999 9C10.933 9 12.5 7.433 12.5 5.5C12.5 3.567 10.933 2 8.99999 2ZM3.49999 5.5C3.49999 2.46243 5.96243 0 8.99999 0C12.0376 0 14.5 2.46243 14.5 5.5C14.5 8.53757 12.0376 11 8.99999 11C5.96243 11 3.49999 8.53757 3.49999 5.5ZM6.32626 12.5C6.38332 12.5 6.44122 12.5 6.5 12.5H11.5C11.5588 12.5 11.6167 12.5 11.6737 12.5C12.901 12.4995 13.739 12.4992 14.4514 12.7153C16.0494 13.2 17.2999 14.4506 17.7847 16.0486C18.0008 16.761 18.0005 17.599 18 18.8263C18 18.8833 18 18.9412 18 19C18 19.5523 17.5523 20 17 20C16.4477 20 16 19.5523 16 19C16 17.5317 15.9891 17.0192 15.8708 16.6291C15.58 15.6703 14.8296 14.92 13.8708 14.6292C13.4808 14.5108 12.9683 14.5 11.5 14.5H6.5C5.03167 14.5 4.5192 14.5108 4.12914 14.6292C3.17033 14.92 2.42002 15.6703 2.12917 16.6291C2.01085 17.0192 1.99999 17.5317 1.99999 19C1.99999 19.5523 1.55228 20 0.999992 20C0.447707 20 -8.2777e-06 19.5523 -8.2777e-06 19C-8.2777e-06 18.9412 -2.97354e-05 18.8833 -5.08354e-05 18.8263C-0.000504904 17.599 -0.000814974 16.761 0.215291 16.0486C0.700042 14.4506 1.95056 13.2 3.54856 12.7153C4.26097 12.4992 5.09899 12.4995 6.32626 12.5Z" fill="#101828"/>
</svg>
