<svg width="17" height="10" viewBox="0 0 17 10" fill="none" xmlns="http://www.w3.org/2000/svg">
<path d="M8.38841 0C11.5936 0 14.5003 1.7536 16.6451 4.60192C16.8201 4.83528 16.8201 5.16129 16.6451 5.39465C14.5003 8.2464 11.5936 10 8.38841 10C5.18319 10 2.27654 8.2464 0.131718 5.39808C-0.0432995 5.16472 -0.0432995 4.83871 0.131718 4.60535C2.27654 1.7536 5.18319 0 8.38841 0ZM8.15849 8.52093C10.2861 8.65477 12.0432 6.90117 11.9093 4.77008C11.7995 3.01304 10.3754 1.58888 8.61834 1.47907C6.49068 1.34523 4.73364 3.09883 4.86748 5.22992C4.98072 6.98353 6.40488 8.40769 8.15849 8.52093ZM8.26487 6.8943C9.41106 6.96637 10.3582 6.02265 10.2827 4.87646C10.2244 3.92931 9.45567 3.16404 8.50852 3.10227C7.36233 3.0302 6.41518 3.97392 6.49068 5.12011C6.55245 6.07069 7.32115 6.83596 8.26487 6.8943Z" fill="#475467"/>
</svg>
