<svg width="22" height="17" viewBox="0 0 22 17" fill="none" xmlns="http://www.w3.org/2000/svg">
<path fill-rule="evenodd" clip-rule="evenodd" d="M10.9999 0C10.9999 0 11 0 11 1L11 2L10.9316 2.0001L10.7329 2.00081C10.5606 2.00161 10.3122 2.00323 10.009 2.00648C9.40239 2.01297 8.57842 2.02594 7.70715 2.05183C6.83427 2.07777 5.92194 2.11645 5.13612 2.17376C4.3289 2.23264 3.73742 2.30619 3.44759 2.38235C3.1917 2.45604 2.95949 2.59537 2.77403 2.78657C2.59377 2.9724 2.46384 3.20088 2.39621 3.45044C2.12536 4.96515 1.9929 6.50138 2.00051 8.04015L2.00056 8.05137C1.99087 9.59582 2.1222 11.1379 2.39304 12.6584C2.46766 12.8944 2.59865 13.1091 2.77494 13.2835C2.96094 13.4676 3.19111 13.6008 3.44337 13.6703C3.73165 13.7469 4.32495 13.8209 5.13612 13.8801C5.92194 13.9374 6.83427 13.976 7.70715 14.002C8.57842 14.0279 9.40239 14.0408 10.009 14.0473C10.3122 14.0506 10.5606 14.0522 10.7329 14.053L10.9316 14.0537H11.0684L11.2671 14.053C11.4394 14.0522 11.6878 14.0506 11.991 14.0473C12.5976 14.0408 13.4216 14.0279 14.2929 14.002C15.1657 13.976 16.0781 13.9374 16.8639 13.8801C17.6711 13.8212 18.2626 13.7476 18.5524 13.6715C18.8083 13.5978 19.0405 13.4584 19.226 13.2672C19.4062 13.0814 19.5362 12.8529 19.6038 12.6034C19.8725 11.1002 20.005 9.57576 19.9995 8.04868L19.9995 8.03881C20.0092 6.48836 19.8768 4.9403 19.6038 3.4141C19.5362 3.16453 19.4062 2.93604 19.226 2.75021C19.043 2.56155 18.8145 2.4234 18.5626 2.34897C18.2614 2.27848 17.6675 2.21196 16.8702 2.15886C16.0826 2.10641 15.1689 2.07106 14.2954 2.04736C13.4234 2.0237 12.5989 2.01185 11.9919 2.00592C11.6886 2.00296 11.44 2.00148 11.2675 2.00074L11.0686 2.00009L11 2L11 1C11 0 10.9999 0 10.9999 0L11.0726 9.52482e-05L11.2761 0.000754893C11.4517 0.00150734 11.704 0.00301039 12.0114 0.00601333C12.6259 0.0120156 13.4627 0.0240265 14.3497 0.0480927C15.2352 0.0721192 16.1782 0.10835 17.0031 0.163281C17.802 0.21649 18.5684 0.291517 19.055 0.410342C19.0667 0.413205 19.0784 0.416281 19.09 0.419567C19.6873 0.588546 20.2294 0.912149 20.6616 1.35769C21.0937 1.80324 21.4007 2.35494 21.5514 2.95708C21.5568 2.97868 21.5615 3.00046 21.5654 3.02237C21.8645 4.68013 22.0098 6.36195 21.9995 8.04642C22.0052 9.70569 21.8599 11.362 21.5655 12.995C21.5615 13.0169 21.5568 13.0387 21.5514 13.0604C21.4007 13.6625 21.0937 14.2142 20.6616 14.6598C20.2294 15.1053 19.6873 15.4289 19.09 15.5979L19.0761 15.6017C18.5816 15.734 17.808 15.8165 17.0094 15.8748C16.1828 15.935 15.2384 15.9748 14.3523 16.0011C13.4645 16.0275 12.6272 16.0406 12.0124 16.0472C11.7047 16.0505 11.4523 16.0522 11.2765 16.053C11.1886 16.0534 11.1198 16.0536 11.0728 16.0537L11.0001 16.0538L10.9272 16.0537C10.8802 16.0536 10.8114 16.0534 10.7235 16.053C10.5477 16.0522 10.2953 16.0505 9.98765 16.0472C9.37278 16.0406 8.53547 16.0275 7.64774 16.0011C6.76162 15.9748 5.81723 15.935 4.99063 15.8748C4.192 15.8165 3.4184 15.734 2.92386 15.6017L2.9183 15.6002C2.33318 15.4401 1.79924 15.1318 1.36807 14.7051C0.9369 14.2783 0.623076 13.7476 0.456921 13.1642C0.447882 13.1325 0.44042 13.1003 0.434562 13.0678C0.135576 11.4103 -0.00972523 9.72867 0.000504714 8.04442C-0.00741245 6.37277 0.137877 4.70391 0.434554 3.05877C0.438509 3.03685 0.443195 3.01506 0.448605 2.99344C0.599319 2.3913 0.906265 1.8396 1.33844 1.39405C1.77062 0.948511 2.31272 0.624907 2.90999 0.455929L2.92386 0.452112C3.4184 0.319852 4.192 0.237312 4.99063 0.179061C5.81723 0.11877 6.76162 0.0790431 7.64774 0.0527112C8.53547 0.0263318 9.37278 0.0131687 9.98765 0.00659096C10.2953 0.00329995 10.5477 0.0016526 10.7235 0.00082773C10.8114 0.000415266 10.8802 0.000208318 10.9272 0.000104547L10.9999 0ZM10.4951 3.93304C10.5046 3.93912 10.514 3.94518 10.5234 3.95121L14.4662 6.48588C14.4748 6.49142 14.4835 6.49699 14.4922 6.50259C14.6433 6.59965 14.8083 6.7057 14.9398 6.80826C15.0793 6.91704 15.2995 7.10891 15.4293 7.41617C15.587 7.78941 15.587 8.21058 15.4293 8.58383C15.2995 8.89108 15.0793 9.08296 14.9398 9.19174C14.8083 9.29429 14.6433 9.40034 14.4922 9.49738C14.4835 9.50299 14.4748 9.50857 14.4662 9.51412L10.5234 12.0488C10.514 12.0548 10.5045 12.0609 10.4951 12.067C10.3194 12.18 10.1346 12.2988 9.97188 12.3835C9.80818 12.4687 9.51111 12.6066 9.14314 12.5804C8.70914 12.5494 8.30999 12.3314 8.04923 11.9831C7.82813 11.6878 7.7835 11.3634 7.76664 11.1796C7.74989 10.9969 7.74995 10.7772 7.74999 10.5683C7.75 10.557 7.75 10.5458 7.75 10.5347V5.46533C7.75 5.45417 7.75 5.44296 7.74999 5.43173C7.74995 5.22279 7.74989 5.00311 7.76664 4.82043C7.7835 4.63665 7.82813 4.31219 8.04923 4.01687C8.30999 3.66856 8.70914 3.45064 9.14314 3.41964C9.51111 3.39336 9.80818 3.53127 9.97188 3.61647C10.1346 3.70117 10.3194 3.82001 10.4951 3.93304ZM9.75 5.83167V10.1683L13.123 8L9.75 5.83167Z" fill="#101828"/>
</svg>
