<svg width="24" height="24" viewBox="0 0 24 24" fill="none" xmlns="http://www.w3.org/2000/svg">
<path d="M10.2174 12.8498C10.0697 12.6531 9.99023 12.4169 9.97887 12.1695C9.97319 11.3768 10.4105 10.8989 11.0353 10.9383C11.3022 10.9439 11.5521 11.0732 11.7112 11.2925C12.0292 11.7198 12.0292 12.4225 11.7112 12.8498C11.6544 12.9229 11.5919 12.9848 11.5237 13.0354C11.1091 13.339 10.5241 13.2547 10.2174 12.8498Z" fill="#101828"/>
<path d="M17.5952 12.8555C17.4248 12.625 17.3396 12.3495 17.351 12.0683C17.351 11.3655 17.7826 10.9045 18.396 10.9383C18.663 10.9439 18.9129 11.0788 19.0719 11.2925C19.3957 11.7198 19.3957 12.4394 19.0662 12.8667C19.0151 12.9229 18.964 12.9792 18.9015 13.0241C18.4926 13.339 17.9076 13.2603 17.5952 12.8555Z" fill="#101828"/>
<path fill-rule="evenodd" clip-rule="evenodd" d="M1 11.1823C1 5.55858 5.92449 1 12 1C18.0755 1 23 5.55858 23 11.1823C23 16.8061 18.0755 21.3647 12 21.3647C10.9018 21.3647 9.84148 21.2162 8.84047 20.9384L5.08646 23V19.1023C2.59365 17.236 1 14.3815 1 11.1823ZM12.5006 9.73507C12.2678 9.78005 12.1258 9.9431 11.9895 10.1174C11.2795 9.50456 10.4957 9.4652 9.72329 9.92061C8.79183 10.4604 8.44538 11.3374 8.56465 12.3663C8.67824 13.3165 9.09285 14.098 10.1038 14.4241C10.7343 14.6265 11.3193 14.5534 11.8361 14.1374C11.9724 14.0305 12.0122 14.053 12.1087 14.1711C12.2962 14.4129 12.6199 14.4972 12.9039 14.3904C13.1822 14.306 13.3753 14.0474 13.3753 13.755C13.3866 12.6306 13.3923 11.5061 13.3753 10.3816C13.3696 9.93185 12.9493 9.64511 12.5006 9.73507ZM18.2029 9.63949C16.8398 9.67885 15.88 10.7583 15.9254 12.2033C15.9027 13.6089 17.0784 14.6715 18.5608 14.5253C19.9182 14.3904 20.7985 13.384 20.7531 11.9615C20.7076 10.5559 19.6512 9.59451 18.2029 9.63949ZM15.4269 11.9559C15.4262 11.6654 15.4256 11.3749 15.4256 11.0844C15.4256 10.7927 15.4262 10.5003 15.4269 10.2078V10.2065C15.4281 9.61992 15.4294 9.03249 15.4256 8.44756C15.4256 7.99777 15.136 7.71665 14.7043 7.72227C14.284 7.72227 14.0057 8.00339 14 8.43631C13.9963 8.61227 13.9975 8.78573 13.9988 8.96003C13.9994 9.04737 14 9.13526 14 9.22344V13.6932C14 14.0474 14.2159 14.3454 14.4998 14.4185C14.568 14.4353 14.6418 14.441 14.71 14.441C15.1132 14.4297 15.4313 14.098 15.4256 13.6988C15.4294 13.1178 15.4281 12.5369 15.4269 11.9559ZM6.25529 13.0735C5.97548 13.0741 5.69083 13.0747 5.40111 13.0747C5.49198 12.951 5.54878 12.878 5.61125 12.8049C6.35528 11.8772 7.09931 10.9439 7.84334 10.0049C8.05916 9.72945 8.27499 9.45396 8.4113 9.13348C8.56465 8.76241 8.39994 8.4082 8.01373 8.27889C7.83766 8.23391 7.66159 8.21142 7.47984 8.21704C6.46887 8.21142 5.45222 8.21142 4.44125 8.21704C4.29926 8.21704 4.15727 8.23391 4.02096 8.26764C3.80514 8.31824 3.63475 8.49254 3.58363 8.70618C3.5098 9.02103 3.70858 9.34151 4.03232 9.4146C4.16863 9.44271 4.31062 9.45958 4.45261 9.45958C4.7593 9.46239 5.0674 9.46239 5.37551 9.46239C5.68364 9.46239 5.99177 9.46239 6.29848 9.4652C6.31643 9.46668 6.33517 9.46465 6.35407 9.4626C6.40694 9.45688 6.46111 9.45101 6.50295 9.52142C6.45184 9.58326 6.40074 9.65071 6.34963 9.71817C5.46929 10.8201 4.58892 11.9278 3.71426 13.0298C3.49844 13.3053 3.38485 13.6089 3.54388 13.9462C3.7029 14.2835 4.02664 14.351 4.35606 14.3679C4.54653 14.3799 4.73412 14.3776 4.92293 14.3753C4.99874 14.3744 5.07474 14.3735 5.1512 14.3735C5.38139 14.3735 5.61121 14.3739 5.84086 14.3742C6.52918 14.3753 7.2159 14.3763 7.90581 14.3679C8.39426 14.3623 8.65552 14.0643 8.60441 13.6201C8.55897 13.2659 8.31475 13.0804 7.86606 13.0747C7.33614 13.071 6.80334 13.0722 6.25529 13.0735Z" fill="#101828"/>
</svg>
